<?xml version="1.0" standalone="no"?>
<!DOCTYPE svg PUBLIC "-//W3C//DTD SVG 20010904//EN"
 "http://www.w3.org/TR/2001/REC-SVG-20010904/DTD/svg10.dtd">
<svg version="1.0" xmlns="http://www.w3.org/2000/svg"
 width="577.000000pt" height="433.000000pt" viewBox="0 0 577.000000 433.000000"
 preserveAspectRatio="xMidYMid meet">

<g transform="translate(0.000000,433.000000) scale(0.100000,-0.100000)"
fill="#000000" stroke="none">
<path d="M4335 3874 c-181 -40 -359 -78 -395 -83 -36 -5 -117 -21 -180 -35
-63 -14 -215 -47 -338 -74 l-223 -49 -16 28 c-32 54 -120 74 -153 34 -8 -10
-25 -12 -59 -8 -30 3 -57 1 -72 -8 -13 -7 -39 -12 -57 -10 -19 1 -47 -5 -65
-14 -17 -8 -39 -13 -49 -9 -17 5 -165 -40 -182 -56 -4 -5 -26 1 -48 12 -30 16
-49 19 -81 14 -53 -9 -55 -9 -99 -1 -87 17 -149 -20 -158 -93 l-5 -47 -159 -7
c-160 -8 -186 -14 -186 -48 0 -29 23 -39 100 -42 l75 -3 -50 -8 c-63 -10 -79
-19 -83 -44 -6 -42 18 -46 140 -23 62 12 129 24 148 27 l36 5 12 -88 c7 -51
37 -160 67 -252 30 -90 55 -174 55 -187 0 -22 -4 -24 -77 -30 -543 -44 -856
-119 -1069 -258 -154 -100 -189 -187 -159 -392 65 -439 356 -922 720 -1196 52
-40 137 -97 227 -152 18 -11 31 -31 38 -59 50 -200 92 -247 258 -288 382 -95
880 -49 1098 101 55 38 61 50 77 150 l13 83 92 55 c140 85 226 154 359 291
121 123 171 186 259 325 60 95 161 298 178 360 62 217 75 272 91 361 16 93 16
105 2 155 -21 72 -70 143 -126 185 -116 87 -382 192 -541 214 -36 5 -141 20
-235 34 -93 14 -188 26 -210 26 -81 1 -85 4 -85 79 0 36 9 120 20 186 12 74
20 167 20 243 l0 122 213 0 c118 0 451 3 742 7 506 6 529 7 548 26 16 16 18
29 15 73 -3 30 -8 57 -12 61 -14 14 -364 4 -1280 -37 -121 -5 -221 -8 -223 -6
-4 4 200 43 272 52 28 3 185 31 350 61 165 30 332 60 370 67 393 72 482 89
495 96 19 10 20 111 1 134 -8 10 -27 16 -50 15 -20 -1 -184 -34 -366 -75z
m-1190 -284 c30 -59 31 -70 7 -70 -13 0 -26 18 -45 60 -24 57 -24 60 -6 60 12
0 27 -16 44 -50z m-138 8 c23 -26 43 -61 43 -77 0 -6 -13 -11 -30 -11 -22 0
-33 7 -44 28 -8 16 -22 34 -30 41 -25 21 -19 41 12 41 17 0 37 -9 49 -22z
m-133 -20 c26 -24 44 -68 27 -68 -5 0 -16 -3 -25 -6 -17 -6 -71 70 -61 86 10
16 32 11 59 -12z m-84 -20 c25 -27 26 -58 3 -58 -16 0 -73 59 -73 74 0 15 52
3 70 -16z m-490 -60 c0 -16 -6 -19 -32 -16 -26 2 -34 8 -36 27 -3 16 3 30 15
38 16 12 20 11 36 -8 9 -12 17 -30 17 -41z m79 26 c27 -35 26 -44 -4 -44 -24
0 -45 25 -45 54 0 25 26 19 49 -10z m91 6 c27 -27 25 -40 -4 -40 -20 0 -56 35
-56 55 0 13 42 3 60 -15z m228 4 c33 -23 27 -32 -25 -36 -58 -6 -102 14 -82
38 15 19 79 18 107 -2z m496 -165 c24 -122 -11 -330 -100 -589 -78 -229 -83
-275 -41 -357 l26 -53 -27 0 c-40 0 -50 11 -67 66 -27 90 -14 165 65 382 68
187 90 295 91 447 0 66 3 123 5 127 13 21 42 6 48 -23z m-877 -14 c20 -219 26
-256 68 -403 66 -228 70 -364 14 -475 -17 -32 -69 -77 -91 -77 -3 0 9 35 28
79 39 90 59 208 49 291 -6 54 -34 161 -81 310 -33 102 -54 205 -54 263 l0 48
32 -3 c27 -3 32 -7 35 -33z m111 -44 c12 -85 30 -140 82 -261 30 -67 34 -87
38 -191 3 -86 0 -132 -12 -179 -20 -76 -65 -180 -78 -180 -12 0 -4 85 19 210
21 119 13 187 -41 322 -55 140 -73 204 -81 291 l-7 67 35 0 34 0 11 -79z m111
57 c5 -13 14 -41 21 -63 6 -22 33 -96 58 -165 45 -124 46 -126 46 -250 0 -148
-21 -234 -90 -377 -48 -99 -62 -116 -83 -104 -10 7 -6 22 22 72 19 35 47 109
63 164 24 86 29 117 28 220 l0 120 -67 194 c-37 107 -67 198 -67 203 0 4 14 8
30 8 22 0 33 -6 39 -22z m90 -15 c18 -67 32 -191 22 -197 -6 -4 -81 207 -81
227 0 4 11 7 25 7 20 0 26 -7 34 -37z m142 -10 c21 -73 19 -415 -4 -517 -9
-43 -17 -99 -17 -125 0 -46 23 -134 42 -157 12 -16 37 -114 28 -114 -15 0 -98
100 -120 145 -34 70 -35 123 -6 276 30 159 35 354 11 454 -20 84 -20 85 19 85
31 0 34 -3 47 -47z m83 -5 c44 -158 52 -409 18 -538 -11 -41 -31 -97 -43 -125
l-24 -50 -3 54 c-2 30 8 112 22 185 43 222 43 298 0 499 -11 50 15 29 30 -25z
m86 47 c0 -2 12 -71 26 -152 23 -129 25 -168 22 -308 -4 -154 -6 -164 -41
-264 -44 -124 -46 -170 -12 -237 14 -27 25 -50 25 -51 0 -2 -10 -3 -23 -3 -16
0 -33 13 -54 43 -58 82 -61 127 -13 262 53 150 64 354 30 561 -11 67 -22 128
-26 138 -5 13 1 16 30 16 20 0 36 -2 36 -5z m147 -42 c19 -114 2 -319 -33
-383 -12 -22 -13 -23 -14 -5 -3 110 -22 368 -29 398 l-9 37 38 0 c38 0 39 -1
47 -47z m74 -612 c11 -54 52 -157 79 -199 43 -66 218 -173 325 -197 131 -30
195 -94 195 -193 0 -27 -7 -66 -15 -86 -13 -30 -20 -36 -45 -36 -28 0 -29 2
-20 26 16 42 12 122 -9 162 -23 45 -43 55 -138 76 -85 18 -191 69 -252 122
-97 84 -169 244 -158 350 6 62 21 93 24 54 2 -14 8 -49 14 -79z m-843 -48 l-3
-28 -140 -12 c-288 -25 -486 -60 -692 -122 -201 -60 -302 -121 -342 -205 -25
-51 -26 -77 -5 -122 56 -118 363 -232 774 -288 237 -32 391 -40 770 -40 525
-1 878 34 1202 118 385 100 500 225 354 384 -57 63 -136 105 -276 151 -157 50
-318 84 -535 111 -93 12 -171 22 -172 23 -1 1 -4 14 -8 28 -7 27 -6 27 42 22
592 -54 974 -193 1047 -381 21 -54 20 -85 -1 -146 -23 -62 -69 -101 -193 -160
-290 -139 -743 -201 -1460 -201 -518 0 -829 27 -1111 96 -129 31 -306 97 -346
129 -14 11 -31 20 -37 20 -11 0 -65 53 -95 92 -26 34 -31 90 -15 147 38 131
207 234 514 311 185 47 518 95 683 99 47 1 48 0 45 -26z m885 -253 c56 -69
124 -117 217 -151 123 -45 196 -115 222 -212 11 -41 10 -49 -2 -57 -33 -21
-48 -11 -54 35 -5 27 -20 61 -39 87 -32 41 -58 58 -279 172 -68 36 -94 55
-118 91 -45 66 -60 108 -59 167 l0 53 29 -60 c17 -33 54 -89 83 -125z m-473
-10 l23 -23 -33 7 c-19 3 -44 15 -56 27 l-21 20 -13 -30 c-15 -38 -32 -52 -48
-42 -10 6 -2 30 29 95 l42 88 28 -60 c15 -33 37 -70 49 -82z m-537 44 c51 -17
53 -20 35 -59 -14 -30 -31 -32 -65 -5 -14 11 -39 20 -54 20 -66 0 -139 -116
-139 -222 0 -42 -3 -49 -30 -63 -16 -8 -31 -15 -35 -15 -3 0 -5 31 -5 70 0
127 65 243 155 275 53 19 82 18 138 -1z m-263 -41 c0 -22 -37 -43 -75 -43
-117 0 -264 -89 -311 -189 -10 -20 -19 -57 -22 -83 -4 -41 -8 -48 -26 -48 -12
0 -30 6 -40 13 -15 11 -16 19 -6 61 15 68 41 114 95 169 54 54 116 93 178 112
43 14 207 20 207 8z m1847 -7 c75 -20 136 -53 197 -107 60 -54 86 -100 86
-152 0 -26 -6 -40 -22 -51 -33 -23 -36 -20 -31 28 7 63 -24 115 -101 166 -83
56 -143 72 -268 69 -76 -2 -111 2 -132 13 l-29 15 34 11 c77 24 191 28 266 8z
m-1252 -52 c40 -17 88 -28 145 -32 l85 -7 -27 -19 c-57 -38 -101 -39 -196 -6
-113 39 -141 38 -229 -7 -55 -28 -95 -59 -161 -128 -81 -83 -96 -94 -173 -125
-104 -41 -171 -47 -272 -25 -90 20 -107 37 -107 105 1 118 111 225 254 245 43
6 48 5 42 -10 -3 -9 -6 -23 -6 -30 0 -7 -29 -22 -67 -34 -38 -11 -79 -28 -92
-37 -30 -22 -61 -89 -61 -136 0 -77 57 -95 200 -62 93 21 168 69 271 173 47
49 102 97 120 107 113 61 180 68 274 28z m-353 -13 c4 -4 -4 -19 -18 -34 -20
-22 -29 -25 -44 -17 -10 5 -32 10 -49 10 -39 0 -45 12 -20 39 19 20 27 22 73
16 28 -4 54 -10 58 -14z m923 -26 c142 -37 240 -109 328 -242 26 -40 52 -75
57 -78 20 -13 9 -25 -22 -25 -30 0 -40 9 -97 86 -114 152 -199 208 -353 229
-59 9 -180 -17 -250 -52 -55 -27 -113 -39 -151 -29 -13 3 -41 20 -63 37 l-39
31 35 -8 c65 -16 161 -8 240 20 135 49 216 56 315 31z m752 -33 c42 -30 56
-91 38 -169 -7 -30 -17 -59 -22 -64 -12 -12 -77 -24 -71 -13 49 103 55 160 19
198 -12 13 -34 26 -49 30 -15 3 -38 15 -52 26 l-25 21 65 -3 c48 -3 74 -10 97
-26z m-1409 -33 c37 -18 93 -42 126 -54 l59 -22 -51 -16 c-49 -16 -53 -16
-103 3 -73 29 -139 69 -139 85 0 11 24 33 38 35 1 0 33 -14 70 -31z m-595 -92
l4 -78 -36 3 c-36 3 -36 3 -39 56 -3 48 0 55 29 85 37 36 36 38 42 -66z m256
86 c0 -10 -79 -73 -90 -73 -13 0 -11 54 3 68 13 13 88 17 87 5z m923 -18 c158
-5 183 -19 312 -180 31 -38 56 -73 56 -77 0 -5 -15 -8 -34 -8 -24 0 -38 6 -49
24 -33 50 -141 149 -184 168 -38 17 -57 19 -127 13 -74 -6 -165 3 -216 22 -25
9 81 54 110 47 14 -4 73 -8 132 -9z m463 -85 c35 -22 65 -74 65 -112 -1 -21
-3 -21 -33 14 -35 40 -82 118 -71 118 4 0 21 -9 39 -20z m-1071 -11 l39 -11
-42 -19 c-30 -13 -66 -19 -118 -19 -90 0 -120 -15 -169 -82 -33 -47 -52 -56
-88 -42 -12 5 0 23 52 80 99 109 178 132 326 93z m489 -6 c23 -9 60 -28 82
-43 53 -36 175 -107 198 -116 34 -13 16 -24 -40 -24 -54 0 -63 4 -130 54 -96
71 -187 101 -283 93 -85 -7 -270 -64 -364 -112 -53 -26 -82 -35 -120 -35 l-51
0 84 46 c103 55 287 128 361 143 30 6 64 13 75 15 35 8 145 -4 188 -21z m276
-47 c24 -25 22 -29 -21 -40 -27 -6 -78 10 -78 25 0 12 42 39 60 39 9 0 27 -11
39 -24z m768 8 c3 -9 0 -20 -8 -25 -21 -13 -29 -11 -29 9 0 33 26 44 37 16z
m-1041 -59 c29 -14 66 -40 84 -58 l31 -32 -29 -3 c-26 -3 -205 71 -239 99 -47
39 70 34 153 -6z m-176 -16 c35 -22 78 -49 97 -59 l33 -17 -55 -7 c-54 -6 -57
-5 -130 44 -41 28 -75 53 -75 56 0 5 40 22 56 23 6 1 39 -17 74 -40z m-450 24
c-8 -3 -33 -14 -55 -25 l-40 -19 28 26 c16 14 39 25 55 24 16 0 21 -3 12 -6z
m335 -88 l40 -19 -30 -3 c-16 -2 -73 0 -125 5 l-95 7 30 18 c38 22 123 18 180
-8z m1278 -431 c-28 -111 -98 -224 -211 -342 -46 -48 -82 -82 -80 -77 2 6 24
42 49 80 63 95 151 264 185 355 36 97 43 106 63 86 14 -14 13 -24 -6 -102z
m-1594 -889 c121 -31 242 -51 396 -65 66 -7 121 -13 123 -15 10 -10 -162 -14
-255 -6 -125 11 -167 20 -263 57 -62 24 -156 72 -116 59 10 -3 62 -16 115 -30z"/>
</g>
</svg>
